<mxfile host="app.diagrams.net" agent="Mozilla/5.0 (Windows NT 10.0; Win64; x64) AppleWebKit/537.36 (KHTML, like Gecko) Chrome/141.0.0.0 Safari/537.36 Edg/141.0.0.0" version="28.2.5">
  <diagram name="Página-1" id="4WebqL-21ueBAIJD6kmx">
    <mxGraphModel dx="2587" dy="2493" grid="1" gridSize="10" guides="1" tooltips="1" connect="1" arrows="1" fold="1" page="1" pageScale="1" pageWidth="1200" pageHeight="1920" math="0" shadow="0">
      <root>
        <mxCell id="0" />
        <mxCell id="1" parent="0" />
        <mxCell id="SyT4A7CFgI4pP1e2g7s6-1" value="Actor" style="shape=umlActor;verticalLabelPosition=bottom;verticalAlign=top;html=1;fillColor=#0050ef;fontColor=#ffffff;strokeColor=#001DBC;" parent="1" vertex="1">
          <mxGeometry x="615" y="330" width="50" height="90" as="geometry" />
        </mxCell>
        <mxCell id="SyT4A7CFgI4pP1e2g7s6-2" value="Actor" style="shape=umlActor;verticalLabelPosition=bottom;verticalAlign=top;html=1;fillColor=#0050ef;fontColor=#ffffff;strokeColor=#001DBC;" parent="1" vertex="1">
          <mxGeometry x="610" y="860" width="50" height="90" as="geometry" />
        </mxCell>
        <mxCell id="SyT4A7CFgI4pP1e2g7s6-3" value="Cliente" style="text;html=1;align=center;verticalAlign=middle;whiteSpace=wrap;rounded=0;strokeWidth=9;fontColor=light-dark(#000000,#7BB4D9);fontSize=27;" parent="1" vertex="1">
          <mxGeometry x="615" y="430" width="60" height="30" as="geometry" />
        </mxCell>
        <mxCell id="SyT4A7CFgI4pP1e2g7s6-4" value="Director" style="text;html=1;align=center;verticalAlign=middle;whiteSpace=wrap;rounded=0;strokeWidth=9;fontColor=light-dark(#000000,#7BB4D9);fontSize=27;" parent="1" vertex="1">
          <mxGeometry x="610" y="960" width="60" height="30" as="geometry" />
        </mxCell>
        <mxCell id="SyT4A7CFgI4pP1e2g7s6-5" value="Actor" style="shape=umlActor;verticalLabelPosition=bottom;verticalAlign=top;html=1;fillColor=#0050ef;fontColor=#ffffff;strokeColor=#001DBC;" parent="1" vertex="1">
          <mxGeometry x="620" y="1070" width="50" height="90" as="geometry" />
        </mxCell>
        <mxCell id="SyT4A7CFgI4pP1e2g7s6-6" value="Operario" style="text;html=1;align=center;verticalAlign=middle;whiteSpace=wrap;rounded=0;strokeWidth=9;fontColor=light-dark(#000000,#7BB4D9);fontSize=27;" parent="1" vertex="1">
          <mxGeometry x="620" y="1170" width="60" height="30" as="geometry" />
        </mxCell>
        <mxCell id="SyT4A7CFgI4pP1e2g7s6-7" value="Actor" style="shape=umlActor;verticalLabelPosition=bottom;verticalAlign=top;html=1;fillColor=#0050ef;fontColor=#ffffff;strokeColor=#001DBC;" parent="1" vertex="1">
          <mxGeometry x="620" y="1310" width="50" height="90" as="geometry" />
        </mxCell>
        <mxCell id="SyT4A7CFgI4pP1e2g7s6-8" value="Administrador" style="text;html=1;align=center;verticalAlign=middle;whiteSpace=wrap;rounded=0;strokeWidth=9;fontColor=light-dark(#000000,#7BB4D9);fontSize=27;" parent="1" vertex="1">
          <mxGeometry x="620" y="1410" width="60" height="30" as="geometry" />
        </mxCell>
        <mxCell id="dKScbPVOt1iQ9Wq0GAjn-1" value="Cambiar Contraseña" style="ellipse;whiteSpace=wrap;html=1;" vertex="1" parent="1">
          <mxGeometry x="190" y="830" width="100" height="70" as="geometry" />
        </mxCell>
        <mxCell id="dKScbPVOt1iQ9Wq0GAjn-2" value="Iniciar Seccion" style="ellipse;whiteSpace=wrap;html=1;" vertex="1" parent="1">
          <mxGeometry x="310" y="785" width="80" height="70" as="geometry" />
        </mxCell>
        <mxCell id="dKScbPVOt1iQ9Wq0GAjn-3" value="Cerrar Seccion" style="ellipse;whiteSpace=wrap;html=1;" vertex="1" parent="1">
          <mxGeometry x="310" y="875" width="80" height="70" as="geometry" />
        </mxCell>
      </root>
    </mxGraphModel>
  </diagram>
</mxfile>
